<svg id="Layer_5" enable-background="new 0 0 64 64" height="512" viewBox="0 0 64 64" width="512" xmlns="http://www.w3.org/2000/svg" xmlns:xlink="http://www.w3.org/1999/xlink"><linearGradient id="SVGID_1_" gradientUnits="userSpaceOnUse" x1="32" x2="32" y1="63" y2="1"><stop offset="0" stop-color="#9f2fff"/><stop offset="1" stop-color="#0bb1d3"/></linearGradient><path d="m60 21-5-6.667-5 6.667zm-4-2h-2l1-1.333zm-38-18c-9.374 0-17 7.626-17 17 0 7.245 4.564 13.429 10.961 15.872l-.961 22.128c0 3.859 3.14 7 7 7s7-3.141 6.999-7.043l-.959-22.06c4.139-1.564 7.554-4.714 9.443-8.897h29.517v-14h-29.517c-2.752-6.093-8.75-10-15.483-10zm8.46 24c-2.072 2.495-5.166 4-8.46 4-6.065 0-11-4.935-11-11s4.935-11 11-11c3.294 0 6.388 1.505 8.46 4h-13.46v14zm-11.46-2v-10h32v10zm8 33c0 2.757-2.243 5-5 5s-5-2.243-5.001-4.957l.937-21.554c1.305.321 2.661.511 4.064.511 1.394 0 2.755-.174 4.065-.494zm-5-23c-8.271 0-15-6.729-15-15s6.729-15 15-15c5.633 0 10.682 3.098 13.262 8h-2.313c-2.38-3.713-6.519-6-10.949-6-7.168 0-13 5.832-13 13s5.832 13 13 13c4.43 0 8.569-2.287 10.949-6h2.313c-2.58 4.902-7.629 8-13.262 8zm43-10h-12v-10h12zm-44 14h2v2h-2zm0 4h2v2h-2zm0 4h2v2h-2zm14-30c-1.654 0-3 1.346-3 3s1.346 3 3 3 3-1.346 3-3-1.346-3-3-3zm0 4c-.551 0-1-.448-1-1s.449-1 1-1 1 .448 1 1-.449 1-1 1zm-8-4c-1.654 0-3 1.346-3 3s1.346 3 3 3 3-1.346 3-3-1.346-3-3-3zm0 4c-.551 0-1-.448-1-1s.449-1 1-1 1 .448 1 1-.449 1-1 1zm16-4c-1.654 0-3 1.346-3 3s1.346 3 3 3 3-1.346 3-3-1.346-3-3-3zm0 4c-.551 0-1-.448-1-1s.449-1 1-1 1 .448 1 1-.449 1-1 1zm-12 44h36v-30h-36zm2-2v-18h32v18zm32-26v6h-32v-6zm-28 4h-2v-2h2zm4 0h-2v-2h2zm4 0h-2v-2h2zm-10 20h14v-14h-14zm2-12h10v10h-10zm14-2h12v2h-12zm4 4h8v2h-8zm-2 2h-2v-2h2zm-2 2h12v2h-12zm10 4h2v2h-2zm-10 0h8v2h-8z" fill="url(#SVGID_1_)"/></svg>